<svg width="331" height="331" viewBox="0 0 331 331" fill="none" xmlns="http://www.w3.org/2000/svg">
<circle opacity="0.3" cx="165.5" cy="165.5" r="165.5" fill="#121212"/>
<path d="M176.595 71C209.348 71 236 97.6059 236 130.315C236 163.024 209.348 189.67 176.595 189.67C165.491 189.67 155.12 186.546 146.215 181.223C145.121 182.512 143.701 184.203 142.031 186.229C138.552 190.45 134.078 195.92 129.691 201.337C120.917 212.173 112.429 222.774 112.429 222.774C112.026 223.357 111.506 223.85 110.903 224.224C110.3 224.597 109.627 224.843 108.925 224.945C108.222 225.048 107.507 225.006 106.822 224.82C106.137 224.635 105.498 224.311 104.943 223.868C104.389 223.426 103.932 222.875 103.6 222.248C103.269 221.622 103.069 220.934 103.015 220.227C102.961 219.521 103.053 218.811 103.285 218.141C103.517 217.472 103.884 216.857 104.365 216.335C104.365 216.335 112.873 205.718 121.667 194.858C126.064 189.428 130.532 183.933 134.047 179.668C135.536 177.862 136.721 176.427 137.796 175.147C125.194 164.252 117.159 148.214 117.159 130.315C117.159 97.6059 143.842 71 176.595 71ZM176.595 81.3351C149.435 81.3351 127.518 103.191 127.518 130.315C127.518 157.438 149.435 179.325 176.595 179.325C203.755 179.325 225.681 157.438 225.681 130.315C225.681 103.191 203.755 81.3351 176.595 81.3351Z" fill="#121212"/>
</svg>
